<svg width="527" height="124" viewBox="0 0 527 124" fill="none" xmlns="http://www.w3.org/2000/svg">
<path d="M407 112.375C405.815 112.371 404.659 112.141 403.677 111.713C402.695 111.286 401.93 110.68 401.48 109.973L372.98 65.875H347V58.125H377C378.185 58.1288 379.341 58.359 380.323 58.7866C381.305 59.2141 382.07 59.8199 382.52 60.5275L407 97.96L455.36 14.1438C455.789 13.4021 456.56 12.7631 457.568 12.3128C458.576 11.8625 459.774 11.6224 461 11.625C462.237 11.639 463.438 11.8997 464.437 12.3714C465.436 12.8431 466.184 13.5028 466.58 14.26L489.32 58.125H515V65.875H485C483.742 65.8771 482.515 65.6238 481.492 65.151C480.469 64.6782 479.703 64.0097 479.3 63.24L461 27.125L412.64 109.856C412.211 110.598 411.44 111.237 410.432 111.687C409.424 112.138 408.226 112.378 407 112.375Z" fill="black" fill-opacity="0.04"/>
<path d="M240 112.375C238.815 112.371 237.659 112.141 236.677 111.713C235.695 111.286 234.93 110.68 234.48 109.973L205.98 65.875H180V58.125H210C211.185 58.1288 212.341 58.359 213.323 58.7866C214.305 59.2141 215.07 59.8199 215.52 60.5275L240 97.96L288.36 14.1438C288.789 13.4021 289.56 12.7631 290.568 12.3128C291.576 11.8625 292.774 11.6224 294 11.625C295.237 11.639 296.438 11.8997 297.437 12.3714C298.436 12.8431 299.184 13.5028 299.58 14.26L322.32 58.125H348V65.875H318C316.742 65.8771 315.515 65.6238 314.492 65.151C313.469 64.6782 312.703 64.0097 312.3 63.24L294 27.125L245.64 109.856C245.211 110.598 244.44 111.237 243.432 111.687C242.424 112.138 241.226 112.378 240 112.375Z" fill="black" fill-opacity="0.04"/>
<path d="M72 112.375C70.8154 112.371 69.6592 112.141 68.6768 111.713C67.6945 111.286 66.9301 110.68 66.48 109.973L37.98 65.875H12V58.125H42C43.1846 58.1288 44.3409 58.359 45.3232 58.7866C46.3055 59.2141 47.0699 59.8199 47.52 60.5275L72 97.96L120.36 14.1438C120.789 13.4021 121.56 12.7631 122.568 12.3128C123.576 11.8625 124.774 11.6224 126 11.625C127.237 11.639 128.438 11.8997 129.437 12.3714C130.436 12.8431 131.184 13.5028 131.58 14.26L154.32 58.125H180V65.875H150C148.742 65.8771 147.515 65.6238 146.492 65.151C145.469 64.6782 144.703 64.0097 144.3 63.24L126 27.125L77.64 109.856C77.2109 110.598 76.4404 111.237 75.432 111.687C74.4237 112.138 73.2259 112.378 72 112.375Z" fill="black" fill-opacity="0.04"/>
</svg>
